<?xml version="1.0" encoding="utf-8"?>
<!-- Generator: Adobe Illustrator 22.0.1, SVG Export Plug-In . SVG Version: 6.00 Build 0)  -->
<svg version="1.1" id="Layer_1" xmlns="http://www.w3.org/2000/svg" xmlns:xlink="http://www.w3.org/1999/xlink" x="0px" y="0px"
	 viewBox="0 0 157.8 92.8" style="enable-background:new 0 0 157.8 92.8;" xml:space="preserve">
<style type="text/css">
	.st0{fill:#231F20;}
</style>
<title>awl-logo-small</title>
<g>
	<g>
		<path class="st0" d="M55,47.8c-10.4,0-18.8,8.4-18.8,18.8S44.6,85.5,55,85.5s18.8-8.4,18.8-18.8S65.4,47.8,55,47.8z M62.7,76
			c-0.4,0-0.6-0.1-1-0.5L52,67.7l-3.3,8.2h-2.8l8.2-19.8c0.2-0.5,0.7-0.8,1.2-0.8c0.5,0,1,0.3,1.2,0.8l7.5,18
			c0.1,0.2,0.1,0.4,0.1,0.6C64.1,75.5,63.5,76,62.7,76L62.7,76z"/>
	</g>
	<path class="st0" d="M52.8,65.6l7.4,5.8l-4.9-12L52.8,65.6z"/>
</g>
</svg>
